<svg width="363" height="363" viewBox="0 0 363 363" fill="none" xmlns="http://www.w3.org/2000/svg">
<path d="M317.625 93.9943C307.62 98.4259 296.858 101.383 285.507 102.782C297.047 95.9303 305.926 85.0025 310.093 72.0933C299.293 78.4231 287.33 83.0741 274.602 85.5243C264.438 74.7478 249.941 68.0625 233.878 68.0625C203.023 68.0625 178.014 92.8524 178.014 123.42C178.014 127.746 178.52 131.958 179.473 136.049C133.055 133.72 91.8844 111.653 64.3417 78.166C59.5017 86.3486 56.7792 95.9303 56.7792 106.041C56.7792 125.258 66.6181 142.175 81.6221 152.142C72.4639 151.863 63.8426 149.314 56.2952 145.23C56.2952 145.397 56.2952 145.646 56.2952 145.881C56.2952 172.735 75.5569 195.097 101.088 200.187C96.4219 201.465 91.4911 202.176 86.4091 202.176C82.8018 202.176 79.2852 201.768 75.8821 201.155C82.9909 223.101 103.614 239.141 128.048 239.618C108.93 254.44 84.8512 263.319 58.6699 263.319C54.1475 263.319 49.7234 263.062 45.3523 262.532C70.0892 278.194 99.462 287.375 130.99 287.375C233.727 287.375 289.931 203.008 289.931 129.818C289.931 127.421 289.855 125.031 289.742 122.671C300.708 114.927 310.161 105.157 317.625 93.9943Z" fill="#40D3DC"/>
</svg>
